<svg width="100" height="100" viewBox="0 0 100 100" fill="none" xmlns="http://www.w3.org/2000/svg">
<g id="carbon:two-factor-authentication" clip-path="url(#clip0_28_1887)">
<path id="Vector" d="M40.125 36.1875L33.875 29.9344L29.4656 34.3406L40.125 45L58.875 26.25L54.4688 21.8438L40.125 36.1875ZM93.25 57.5H80.75V51.25H93.25V13.75H80.75V-11.25C80.7459 -14.5639 79.4276 -17.741 77.0843 -20.0843C74.741 -22.4276 71.5639 -23.7459 68.25 -23.75V-30C73.221 -29.9942 77.9868 -28.0169 81.5019 -24.5019C85.0169 -20.9868 86.9942 -16.221 87 -11.25V7.5H93.25C94.9071 7.50166 96.4959 8.16067 97.6676 9.33241C98.8393 10.5042 99.4984 12.0929 99.5 13.75V51.25C99.4984 52.9071 98.8393 54.4958 97.6676 55.6676C96.4959 56.8393 94.9071 57.4983 93.25 57.5Z" fill="#010101"/>
<path id="Vector_2" d="M68.25 7.5H62V-11.25C62 -16.2228 60.0246 -20.9919 56.5083 -24.5083C52.9919 -28.0246 48.2228 -30 43.25 -30C38.2772 -30 33.5081 -28.0246 29.9917 -24.5083C26.4754 -20.9919 24.5 -16.2228 24.5 -11.25V7.5H18.25C16.5924 7.5 15.0027 8.15848 13.8306 9.33059C12.6585 10.5027 12 12.0924 12 13.75V51.25C12 52.9076 12.6585 54.4973 13.8306 55.6694C15.0027 56.8415 16.5924 57.5 18.25 57.5H68.25C69.9076 57.5 71.4973 56.8415 72.6694 55.6694C73.8415 54.4973 74.5 52.9076 74.5 51.25V13.75C74.5 12.0924 73.8415 10.5027 72.6694 9.33059C71.4973 8.15848 69.9076 7.5 68.25 7.5ZM30.75 -11.25C30.75 -14.5652 32.067 -17.7446 34.4112 -20.0888C36.7554 -22.433 39.9348 -23.75 43.25 -23.75C46.5652 -23.75 49.7446 -22.433 52.0888 -20.0888C54.433 -17.7446 55.75 -14.5652 55.75 -11.25V7.5H30.75V-11.25ZM68.25 51.25H18.25V13.75H68.25V51.25Z" fill="#010101"/>
</g>
<defs>
<clipPath id="clip0_28_1887">
<rect width="100" height="100" fill="white"/>
</clipPath>
</defs>
</svg>
